<svg width="109" height="50" viewBox="0 0 109 50" fill="none" xmlns="http://www.w3.org/2000/svg">
<path d="M93.5102 20.0085C93.1945 20.0085 92.9509 19.9222 92.7778 19.7508C92.6074 19.5774 92.5204 19.3331 92.5204 19.0137C92.5204 18.6056 92.6463 18.258 92.9009 17.9785C93.1546 17.6959 93.4611 17.5557 93.8148 17.5557C94.1028 17.5557 94.3426 17.6514 94.5343 17.8434C94.7269 18.0342 94.8222 18.2808 94.8222 18.5797C94.8222 18.9856 94.6963 19.3244 94.4445 19.5998C94.1926 19.8717 93.8833 20.0085 93.5102 20.0085Z" fill="#313131"/>
<path d="M78.0351 27.7514C78.6023 27.3815 79.0809 26.88 79.4693 26.247C79.8581 25.6152 80.0511 25.0661 80.0511 24.5951C80.0511 24.3603 79.9931 24.1812 79.8786 24.0573C79.7637 23.9346 79.5989 23.873 79.3808 23.873C78.9248 23.873 78.5249 24.1395 78.1758 24.6732C77.8251 25.2053 77.6498 25.8248 77.6498 26.53C77.6498 26.799 77.6802 27.0286 77.7388 27.2241C77.7999 27.4172 77.8979 27.5941 78.0351 27.7514ZM63.849 28.2346C64.0578 28.3133 64.235 28.4303 64.3862 28.5934C64.5364 28.7531 64.6568 28.9546 64.7523 29.1954C65.2649 29.092 65.6668 28.8306 65.9577 28.4167C66.251 27.9992 66.397 27.4755 66.397 26.84C66.397 26.594 66.3712 26.3339 66.3244 26.0561C66.2739 25.7819 66.1988 25.4737 66.0949 25.1355C65.8826 25.6057 65.5806 26.1095 65.1946 26.6445C64.8057 27.18 64.3587 27.712 63.849 28.2346ZM59.6915 30.1026C58.8115 29.9105 59.1882 29.0233 59.9471 29.1954C60.7367 29.3175 62.3433 28.7914 62.9592 27.7062C63.8039 26.779 64.6824 25.5442 65.5941 24.0044C65.4844 23.8952 65.4057 23.7747 65.3623 23.6456C65.3137 23.5176 65.2914 23.3684 65.2914 23.1999C65.2914 22.7724 65.4568 22.4048 65.7835 22.1001C66.1114 21.7953 66.5056 21.6409 66.9643 21.6409C67.2358 21.6409 67.454 21.713 67.6158 21.8593C67.7749 22.002 67.8575 22.1975 67.8575 22.4442C67.8575 22.6732 67.7896 22.9064 67.6529 23.1412C67.5156 23.3767 67.3079 23.6092 67.0376 23.8388C67.5179 24.3743 67.8652 24.8687 68.0775 25.3204C68.2899 25.7713 68.396 26.2335 68.396 26.7091C68.396 27.143 68.3209 27.5641 68.1725 27.9698C68.0207 28.378 67.8143 28.7197 67.5549 28.9998C67.6775 29.0638 67.8231 29.1143 67.9878 29.1449C68.6412 29.2811 69.7088 29.0527 70.1693 28.5769C70.5095 28.2241 70.8115 27.5805 71.0743 26.6445L71.7629 24.2087H70.9652C70.845 24.2087 70.764 24.1941 70.7195 24.1635C70.6778 24.133 70.6549 24.079 70.6549 24.0038C70.6549 23.992 70.6549 23.9792 70.6572 23.962C70.6608 23.9451 70.6725 23.9141 70.6889 23.8646L70.8197 23.4718C70.8508 23.3684 70.9066 23.2956 70.9875 23.2564C71.0661 23.2198 71.222 23.1999 71.4585 23.1999H72.065L72.8668 20.544C72.9115 20.4013 72.9647 20.2045 73.024 19.9521C73.1953 19.2416 73.5327 18.8862 74.0423 18.8862C74.4031 18.8862 74.6823 18.9297 74.887 19.0202C75.0883 19.1123 75.1891 19.238 75.1891 19.4036C75.1891 19.5129 75.1274 19.7225 75.0014 20.0337C74.9339 20.1993 74.887 20.3308 74.8531 20.4294L73.911 23.2005H75.287C75.3903 23.2005 75.4695 23.2153 75.5252 23.2457C75.5774 23.2774 75.6056 23.3244 75.6056 23.3884C75.6056 23.4166 75.6056 23.4424 75.6026 23.4647C75.5996 23.4842 75.5945 23.5065 75.5891 23.5287L75.4489 23.9233C75.4184 24.0261 75.3569 24.0995 75.27 24.1447C75.1833 24.1864 75.0295 24.2087 74.812 24.2087H73.6065L72.8035 26.8571C72.7115 27.1536 72.6416 27.4091 72.5988 27.624C72.5542 27.8401 72.5325 28.0168 72.5325 28.1537C72.5325 28.4643 72.6809 28.7086 72.9771 28.8847C73.5971 29.2517 74.6777 29.2053 75.3562 29.0392C75.6747 28.9633 75.9869 28.8595 76.2878 28.7274C76.0801 28.4531 75.927 28.1425 75.8291 27.7931C75.7311 27.4431 75.6813 27.0338 75.6813 26.5634C75.6813 25.4683 76.0525 24.517 76.8004 23.7073C77.5476 22.8987 78.4252 22.4947 79.4428 22.4947C80.0101 22.4947 80.4611 22.6655 80.7913 23.0079C81.1216 23.3497 81.2864 23.8165 81.2864 24.4043C81.2864 25.0508 81.0512 25.7631 80.5785 26.5412C80.1057 27.3221 79.4763 28.0085 78.6879 28.6045C78.9173 28.8171 79.1683 28.9687 79.437 29.0609C80.6119 29.4484 81.7205 28.7726 82.3903 27.8113C82.9529 27.0051 83.6009 25.6028 84.3407 23.5998C84.2146 23.4735 84.1225 23.3343 84.0609 23.1834C84.0028 23.0296 83.9711 22.8552 83.9711 22.6561C83.9711 22.2645 84.0797 21.9363 84.2956 21.6767C84.5113 21.4155 84.7824 21.288 85.1103 21.288C85.4118 21.288 85.6493 21.369 85.8229 21.5341C85.9989 21.6972 86.0851 21.9175 86.0851 22.19C86.0851 22.3215 86.0722 22.4442 86.044 22.5563C86.0195 22.6692 85.9743 22.7801 85.9145 22.8952C86.192 23.0714 86.552 23.2821 86.9955 23.5281C87.7973 23.9586 88.2003 24.3872 88.2003 24.8154C88.2003 25.1766 87.9815 25.8118 87.5457 26.725C87.1064 27.6381 86.8887 28.2599 86.8887 28.587C86.8887 28.7861 86.9638 28.9235 87.1152 29.001C88.1376 29.5418 89.3523 29.0156 89.9395 28.1248C90.3958 27.433 90.827 26.2939 91.2293 24.7096C91.2915 24.4566 91.3608 24.1382 91.4429 23.749C91.6071 22.9228 92.1437 22.5105 93.0593 22.5105C93.2713 22.5105 93.4333 22.5411 93.5454 22.6062C93.6574 22.6679 93.713 22.7601 93.713 22.8805C93.713 23.0425 93.6195 23.3637 93.4306 23.8377C93.2435 24.3133 93.1083 24.6832 93.0259 24.9462L92.2399 27.3239L92.2094 27.4219C92.0107 27.9963 91.9127 28.3686 91.9127 28.5394C91.9127 28.769 91.9878 28.9287 92.142 29.0186C92.4958 29.2242 93.4889 29.1894 93.9139 29.0792C94.1519 29.0204 94.3676 28.9364 94.5574 28.8272C94.4945 28.6445 94.4435 28.4549 94.413 28.2558C94.3796 28.0568 94.363 27.8442 94.363 27.6204C94.363 27.0132 94.4852 26.3826 94.7343 25.7331C94.9843 25.0831 95.3241 24.5041 95.7556 24.0027C96.1333 23.5553 96.5833 23.1905 97.1093 22.9105C97.6315 22.6328 98.1213 22.4936 98.5741 22.4936C98.6935 22.4936 98.7889 22.5182 98.8565 22.5722C98.9259 22.6227 98.9593 22.692 98.9593 22.779C98.9593 22.8992 98.8287 23.089 98.563 23.3502C98.2972 23.6109 98.0926 23.8259 97.95 24.0027C97.388 24.709 96.9574 25.4213 96.6546 26.1472C96.3556 26.8723 96.2056 27.553 96.2056 28.186C96.2056 28.4883 96.2713 28.7231 96.4065 28.8905C96.5398 29.0615 96.7259 29.146 96.9602 29.146C97.5222 29.146 98.0695 28.742 98.6074 27.9364C99.1454 27.1295 99.4213 26.217 99.4445 25.2017C99.1695 25.1565 98.9639 25.0555 98.8204 24.8953C98.6778 24.7355 98.6074 24.523 98.6074 24.2575C98.6074 23.8687 98.7176 23.5458 98.9352 23.2915C99.1528 23.0361 99.4296 22.9105 99.763 22.9105C100.13 22.9105 100.411 23.059 100.616 23.3526C100.818 23.6497 100.919 24.0614 100.919 24.5934C100.919 25.2545 100.813 25.9292 100.603 26.6152C100.393 27.301 100.096 27.931 99.713 28.5078C99.4759 28.8677 99.2278 29.1736 98.9685 29.4279C100.354 29.4807 101.519 29.0656 102.538 28.1524C102.719 26.9123 102.969 25.6305 103.287 24.311C103.606 22.9896 103.983 21.6837 104.414 20.3943C104.775 19.3272 105.113 18.5904 105.427 18.1822C105.739 17.7759 106.103 17.5715 106.512 17.5715C106.787 17.5715 107.009 17.6807 107.189 17.8993C107.365 18.117 107.455 18.4006 107.455 18.7447C107.455 19.1711 107.296 19.7142 106.977 20.3719C106.656 21.032 106.224 21.6984 105.676 22.3791C105.257 23.7284 104.918 24.9686 104.667 26.1025C104.412 27.2335 104.283 27.9852 104.283 28.3568C104.283 28.654 104.358 28.8666 104.506 28.998C104.653 29.1295 105.707 29.1942 106.051 29.1942C106.901 29.1842 106.704 30.368 105.733 30.3029H104.737C104.124 30.3029 103.649 30.2165 103.311 30.0398C102.972 29.8666 102.751 29.5941 102.654 29.2277C102.292 29.5611 101.908 29.8178 101.497 29.9974C100.037 30.6534 96.388 30.9799 95.1667 29.7197C94.3361 30.1331 93.4065 30.3022 92.4863 30.3022C91.7825 30.3022 91.2528 30.21 90.9002 30.028C90.5488 29.8437 90.3383 29.5495 90.2744 29.1431C89.9494 29.5166 89.6027 29.7985 89.2285 29.9869C88.3042 30.4555 86.4248 30.3962 85.5947 29.9623C85.1648 29.7344 84.949 29.3686 84.949 28.8578C84.949 28.4043 85.1554 27.7297 85.5672 26.837C85.9783 25.9428 86.186 25.3691 86.186 25.1172C86.186 24.9968 86.115 24.8734 85.9732 24.7449C85.8299 24.6156 85.5895 24.4536 85.2517 24.2545C84.5213 26.3709 83.7664 27.8946 82.9857 28.8214C82.3024 29.6352 81.08 30.3022 80.0101 30.3022C79.3977 30.3022 78.861 30.2348 78.3957 30.1008C77.9319 29.9657 77.5295 29.7591 77.1905 29.4825C76.6625 29.7344 76.131 29.9276 75.5962 30.065C74.5087 30.3451 73.0323 30.4203 71.9523 30.0451C71.4603 29.8713 71.1042 29.6223 70.886 29.2911C70.537 29.5934 70.1505 29.8319 69.7281 30.0057C69.0003 30.3105 68.0904 30.3756 67.3156 30.2136C67.0382 30.1519 66.7583 30.0597 66.4792 29.9341C66.146 30.0704 65.824 30.1713 65.5172 30.2389C65.2098 30.3029 64.9207 30.3363 64.6526 30.3363C64.228 30.3363 63.8225 30.2665 63.4414 30.1261C63.0583 29.9869 62.7428 29.7931 62.491 29.5471C62.2271 29.7484 61.9391 29.9141 61.6207 30.0398C61.3045 30.1666 60.8006 30.3216 59.6915 30.1026Z" fill="#313131"/>
<path d="M59.7015 23.5131C59.6979 23.496 59.6951 23.4784 59.6915 23.4603C59.6417 23.1507 59.6457 22.8942 59.6457 22.5864C59.6457 21.6146 59.9337 20.6475 60.3296 19.7684C60.8059 18.7114 61.4541 17.7431 62.216 16.87C62.8947 16.0931 63.6772 15.352 64.5605 14.8123C65.2457 14.3954 66.027 14.0778 66.8399 14.0778C67.1906 14.0778 67.5443 14.1388 67.8564 14.3026C68.1117 14.436 68.3205 14.6344 68.4923 14.8617C68.666 14.8064 68.8414 14.7231 68.9562 14.5951C69.0982 14.4371 69.1406 14.224 69.1406 14.0167C69.1406 13.5093 68.8466 13.147 68.4406 12.8699C67.8718 12.4806 67.1813 12.3537 66.5016 12.3537C65.3448 12.3537 64.2391 12.6708 63.2085 13.184C62.0143 13.7765 60.9767 14.6145 60.0687 15.5851C59.2387 16.4706 58.4972 17.4559 57.9622 18.5505C57.5435 19.4084 57.2208 20.3703 57.2208 21.3356C57.2208 21.9516 57.3224 22.5641 57.5775 23.1273C57.7775 23.5682 58.0638 23.9653 58.4907 24.2059L58.919 24.4479L58.5142 24.7256C56.4507 26.1415 54.6206 27.8584 53.224 29.9459C52.1711 31.5192 51.2802 33.3906 51.2802 35.3225C51.2802 36.3501 51.5764 37.2732 52.3336 37.9919C53.112 38.7306 54.1103 38.9926 55.1643 38.9926C56.4161 38.9926 57.5956 38.5839 58.6755 37.9719C60.0809 37.1756 61.3462 36.0324 62.4407 34.8544C62.9728 34.2831 63.5059 33.6701 63.9441 33.0235C64.0791 32.8232 64.4473 32.2578 64.4473 32.0094C64.4473 31.7487 64.2662 31.5438 64.0744 31.3899C63.8438 31.2043 63.5817 31.0634 63.2789 31.0634C63.08 31.1016 62.5768 31.7833 62.4636 31.9418C62.0113 32.5749 61.5297 33.1927 61.0077 33.7705C60.2511 34.6113 59.3871 35.4175 58.4227 36.0142C57.7119 36.4529 56.8789 36.8192 56.0301 36.8192C55.6013 36.8192 55.1738 36.7123 54.8717 36.3899C54.5714 36.0681 54.4786 35.6402 54.4786 35.2115C54.4786 33.7112 55.3408 31.939 56.0659 30.6624C57.1669 28.7217 58.5646 26.9693 60.1437 25.3974L60.2534 25.2881L60.4059 25.3117C60.6599 25.3505 60.9192 25.3903 61.176 25.4151C61.3415 25.432 61.5081 25.442 61.6741 25.442C62.3727 25.442 63.1552 25.3387 63.7546 24.9529C64.1794 24.681 64.4473 24.3222 64.4473 23.806C64.4473 23.4667 64.3301 23.1942 64.0714 22.9717C63.7745 22.715 63.3862 22.6345 63.0026 22.6345C62.565 22.6345 62.1357 22.738 61.7286 22.8953C61.186 23.1068 60.6593 23.4232 60.1783 23.7491L59.7008 24.0727L59.7015 23.5131Z" fill="#313131"/>
<mask id="mask0_703_8" style="mask-type:alpha" maskUnits="userSpaceOnUse" x="0" y="0" width="46" height="50">
<path d="M42.3764 28.0537C43.4586 27.7547 44.5217 27.5044 45.5713 27.2898V24.3982V15.0356H45.5542C45.5621 13.9495 45.3054 12.8716 44.8223 11.9343C44.2739 10.8686 43.4361 9.95648 42.3506 9.34611L40.5949 8.35743L40.5911 8.3585L34.0029 4.64789L25.7481 0L25.7433 0.00909468C25.7375 0.00588481 25.7321 0.00320987 25.7262 0C25.4941 0.389999 25.2694 0.783208 25.0602 1.18337C23.9453 3.31633 23.1364 5.65846 23.1364 8.01558C23.1364 8.76027 23.1252 9.38241 23.2643 10.1325C23.2723 10.1753 23.2835 10.2186 23.2931 10.2619V11.616L24.6344 10.8322C25.9852 10.0416 27.4649 9.27491 28.9912 8.76294C30.1329 8.37937 31.3387 8.129 32.5696 8.129C33.646 8.129 34.7385 8.32693 35.5731 8.94858C36.298 9.48731 36.6291 10.1454 36.6291 10.9713C36.6291 12.22 35.8743 13.0898 34.6818 13.7506C32.995 14.6852 30.7994 14.936 28.8356 14.936C28.3685 14.936 27.9009 14.9115 27.4355 14.8724C26.7149 14.8108 25.9868 14.7124 25.2709 14.6182L24.8424 14.5616L24.5348 14.8258C20.0961 18.637 16.1715 22.8837 13.0756 27.5893C11.04 30.6831 8.61816 34.9801 8.61816 38.6174C8.61816 39.6542 8.87816 40.6953 9.72231 41.4726C10.5708 42.2547 11.7713 42.5158 12.9767 42.5158C15.3626 42.5158 17.7026 41.6272 19.6986 40.5631C28.4097 35.9163 30.1452 31.4348 42.3764 28.0537Z" fill="white"/>
<path d="M30.9896 37.7519C27.9125 40.6059 24.3586 43.3787 20.4105 45.3069C19.1297 45.9327 17.7987 46.4698 16.4243 46.8834L19.8225 48.7975L19.8279 48.7884C20.6651 49.2774 21.6024 49.5551 22.5771 49.5931C23.6343 49.6343 24.6903 49.3972 25.6629 48.8489L29.1809 46.8673L29.1793 46.8642L34.0027 44.1486L42.2601 39.4981L42.2553 39.49C43.268 38.9421 44.11 38.1049 44.691 37.0815L44.6985 37.0853C45.249 36.1121 45.571 34.977 45.571 33.7968V30.551C40.5695 31.7809 35.7702 33.9401 30.9896 37.7519Z" fill="white"/>
<path d="M0.146584 35.1129C1.02769 31.7917 2.93543 28.63 5.09032 25.8523C9.01385 20.7936 14.1571 16.6315 19.9536 13.1985L21.0899 12.525L19.89 11.9413C18.6884 11.355 17.8832 10.3942 17.3231 9.32686C16.6052 7.95895 16.3206 6.47653 16.3206 4.98127C16.3206 3.86209 16.5297 2.74505 16.8754 1.6553L16.3906 1.92815L16.3918 1.93081L11.5683 4.64691L3.31098 9.29908L3.31633 9.30714C2.29827 9.85705 1.45407 10.6996 0.872015 11.7295C0.321522 12.7026 0 13.833 0 14.9993V24.3983V33.7615H0.0171194C0.0139094 34.2168 0.0599175 34.6699 0.146584 35.1129Z" fill="white"/>
</mask>
<g mask="url(#mask0_703_8)">
<g filter="url(#filter0_f_703_8)">
<path d="M44.3002 29.1665C20.2922 47.5929 -14.1076 43.0681 -32.534 19.0601C-50.9604 -4.94788 -46.4355 -39.3477 -22.4276 -57.7741C1.58037 -76.2005 35.9802 -71.6757 54.4066 -47.6677C72.833 -23.6597 68.3082 10.7401 44.3002 29.1665Z" fill="#9746FF"/>
</g>
<g filter="url(#filter1_f_703_8)">
<path d="M-30.7095 18.0332C-15.0482 38.4385 14.1896 42.2843 34.595 26.623C55.0004 10.9617 58.8461 -18.2762 43.1848 -38.6816C27.5235 -59.0869 -1.71434 -62.9327 -22.1197 -47.2714C-42.5251 -31.6101 -46.3708 -2.37222 -30.7095 18.0332Z" fill="#60D5E4"/>
</g>
<g filter="url(#filter2_f_703_8)">
<path d="M-7.4022 31.3583C-2.55145 37.6784 6.50433 38.8696 12.8245 34.0189C19.1446 29.168 20.3358 20.1123 15.4849 13.7922C10.6342 7.47207 1.57843 6.28092 -4.74168 11.1317C-11.0618 15.9824 -12.2529 25.0382 -7.4022 31.3583Z" fill="#FF11A0"/>
</g>
<g filter="url(#filter3_f_703_8)">
<path d="M28.4797 1.57081C40.2056 -10.1551 59.2171 -10.1551 70.943 1.57081C82.6689 13.2967 82.6689 32.3082 70.943 44.0341C59.2171 55.7601 40.2056 55.7601 28.4797 44.0341C16.7537 32.3082 16.7537 13.2967 28.4797 1.57081Z" fill="#9746FF"/>
</g>
<g filter="url(#filter4_f_703_8)">
<path d="M70.025 2.25912C60.0587 -7.70722 43.9 -7.70722 33.9337 2.25912C23.9673 12.2255 23.9673 28.3842 33.9337 38.3505C43.9 48.3168 60.0587 48.3168 70.025 38.3505C79.9914 28.3842 79.9914 12.2255 70.025 2.25912Z" fill="#60D5E4"/>
</g>
<g filter="url(#filter5_f_703_8)">
<path d="M56.4109 -3.31449C53.3241 -6.40135 48.3194 -6.40135 45.2325 -3.31449C42.1456 -0.227632 42.1456 4.77715 45.2325 7.86402C48.3194 10.9509 53.3241 10.9509 56.4109 7.86402C59.4979 4.77715 59.4979 -0.227632 56.4109 -3.31449Z" fill="#FF11A0"/>
</g>
</g>
<defs>
<filter id="filter0_f_703_8" x="-75.3316" y="-100.572" width="172.536" height="172.536" filterUnits="userSpaceOnUse" color-interpolation-filters="sRGB">
<feFlood flood-opacity="0" result="BackgroundImageFix"/>
<feBlend mode="normal" in="SourceGraphic" in2="BackgroundImageFix" result="shape"/>
<feGaussianBlur stdDeviation="15.7336" result="effect1_foregroundBlur_703_8"/>
</filter>
<filter id="filter1_f_703_8" x="-65.5135" y="-82.0754" width="143.502" height="143.502" filterUnits="userSpaceOnUse" color-interpolation-filters="sRGB">
<feFlood flood-opacity="0" result="BackgroundImageFix"/>
<feBlend mode="normal" in="SourceGraphic" in2="BackgroundImageFix" result="shape"/>
<feGaussianBlur stdDeviation="12.5869" result="effect1_foregroundBlur_703_8"/>
</filter>
<filter id="filter2_f_703_8" x="-35.5587" y="-17.0249" width="79.2003" height="79.2003" filterUnits="userSpaceOnUse" color-interpolation-filters="sRGB">
<feFlood flood-opacity="0" result="BackgroundImageFix"/>
<feBlend mode="normal" in="SourceGraphic" in2="BackgroundImageFix" result="shape"/>
<feGaussianBlur stdDeviation="12.5869" result="effect1_foregroundBlur_703_8"/>
</filter>
<filter id="filter3_f_703_8" x="-11.782" y="-38.6908" width="122.987" height="122.987" filterUnits="userSpaceOnUse" color-interpolation-filters="sRGB">
<feFlood flood-opacity="0" result="BackgroundImageFix"/>
<feBlend mode="normal" in="SourceGraphic" in2="BackgroundImageFix" result="shape"/>
<feGaussianBlur stdDeviation="15.7336" result="effect1_foregroundBlur_703_8"/>
</filter>
<filter id="filter4_f_703_8" x="1.28512" y="-30.3894" width="101.388" height="101.388" filterUnits="userSpaceOnUse" color-interpolation-filters="sRGB">
<feFlood flood-opacity="0" result="BackgroundImageFix"/>
<feBlend mode="normal" in="SourceGraphic" in2="BackgroundImageFix" result="shape"/>
<feGaussianBlur stdDeviation="12.5869" result="effect1_foregroundBlur_703_8"/>
</filter>
<filter id="filter5_f_703_8" x="17.7435" y="-30.8034" width="66.1564" height="66.1564" filterUnits="userSpaceOnUse" color-interpolation-filters="sRGB">
<feFlood flood-opacity="0" result="BackgroundImageFix"/>
<feBlend mode="normal" in="SourceGraphic" in2="BackgroundImageFix" result="shape"/>
<feGaussianBlur stdDeviation="12.5869" result="effect1_foregroundBlur_703_8"/>
</filter>
</defs>
</svg>
