<svg width="24" height="24" viewBox="0 0 24 24" fill="none" xmlns="http://www.w3.org/2000/svg">
<path d="M15.1353 0C10.2504 0 6.27061 3.97978 6.27061 8.8647C6.27061 10.9642 7.02644 12.8837 8.2535 14.4056L0 22.6563L1.3437 24L9.59533 15.7465C11.1154 16.9736 13.0358 17.7294 15.1353 17.7294C20.0202 17.7294 24 13.7496 24 8.8647C24 3.97978 20.0202 0 15.1353 0ZM15.1353 1.86625C19.0115 1.86625 22.1337 4.98849 22.1337 8.8647C22.1337 12.7409 19.0115 15.8631 15.1353 15.8631C11.2591 15.8631 8.13686 12.7409 8.13686 8.8647C8.13686 4.98849 11.2591 1.86625 15.1353 1.86625Z" fill="#9C9C9C"/>
</svg>
