<svg width="18" height="18" viewBox="0 0 18 18" fill="none" xmlns="http://www.w3.org/2000/svg">
<g clip-path="url(#clip0_706_56)">
<path d="M3.85715 11.5714C3.85715 11.2166 3.73158 10.9136 3.48043 10.6624C3.22929 10.4113 2.92629 10.2857 2.57143 10.2857C2.21658 10.2857 1.91358 10.4113 1.66243 10.6624C1.41129 10.9136 1.28572 11.2166 1.28572 11.5714C1.28572 11.9263 1.41129 12.2293 1.66243 12.4804C1.91358 12.7316 2.21658 12.8571 2.57143 12.8571C2.92629 12.8571 3.22929 12.7316 3.48043 12.4804C3.73158 12.2293 3.85715 11.9263 3.85715 11.5714ZM5.78572 7.07143C5.78572 6.71657 5.66015 6.41357 5.409 6.16243C5.15786 5.91128 4.85486 5.78571 4.5 5.78571C4.14515 5.78571 3.84215 5.91128 3.591 6.16243C3.33986 6.41357 3.21429 6.71657 3.21429 7.07143C3.21429 7.42628 3.33986 7.72928 3.591 7.98043C3.84215 8.23157 4.14515 8.35714 4.5 8.35714C4.85486 8.35714 5.15786 8.23157 5.409 7.98043C5.66015 7.72928 5.78572 7.42628 5.78572 7.07143ZM10.0851 11.9031L11.0996 8.06657C11.1399 7.89257 11.1146 7.73014 11.0237 7.57928C10.9329 7.42843 10.8039 7.32985 10.6367 7.28357C10.4696 7.23728 10.3089 7.25914 10.1546 7.34914C10.0003 7.43914 9.9 7.57157 9.85372 7.74643L8.83929 11.583C8.43729 11.6164 8.079 11.7621 7.76443 12.0201C7.44986 12.2781 7.239 12.6081 7.13186 13.0101C6.99815 13.5261 7.065 14.0151 7.33243 14.4771C7.59986 14.9391 7.99158 15.237 8.50758 15.3707C9.02358 15.5044 9.51258 15.4376 9.97458 15.1701C10.4366 14.9027 10.7344 14.511 10.8681 13.995C10.9753 13.593 10.9551 13.2013 10.8077 12.8199C10.6603 12.4384 10.419 12.1337 10.0839 11.9057L10.0851 11.9031ZM16.7143 11.5714C16.7143 11.2166 16.5887 10.9136 16.3376 10.6624C16.0864 10.4113 15.7834 10.2857 15.4286 10.2857C15.0737 10.2857 14.7707 10.4113 14.5196 10.6624C14.2684 10.9136 14.1429 11.2166 14.1429 11.5714C14.1429 11.9263 14.2684 12.2293 14.5196 12.4804C14.7707 12.7316 15.0737 12.8571 15.4286 12.8571C15.7834 12.8571 16.0864 12.7316 16.3376 12.4804C16.5887 12.2293 16.7143 11.9263 16.7143 11.5714ZM10.2857 5.14285C10.2857 4.788 10.1601 4.485 9.909 4.23385C9.65786 3.98271 9.35486 3.85714 9 3.85714C8.64515 3.85714 8.34215 3.98271 8.091 4.23385C7.83986 4.485 7.71429 4.788 7.71429 5.14285C7.71429 5.49771 7.83986 5.80071 8.091 6.05185C8.34215 6.303 8.64515 6.42857 9 6.42857C9.35486 6.42857 9.65786 6.303 9.909 6.05185C10.1601 5.80071 10.2857 5.49771 10.2857 5.14285ZM14.7857 7.07143C14.7857 6.71657 14.6601 6.41357 14.409 6.16243C14.1579 5.91128 13.8549 5.78571 13.5 5.78571C13.1451 5.78571 12.8421 5.91128 12.591 6.16243C12.3399 6.41357 12.2143 6.71657 12.2143 7.07143C12.2143 7.42628 12.3399 7.72928 12.591 7.98043C12.8421 8.23157 13.1451 8.35714 13.5 8.35714C13.8549 8.35714 14.1579 8.23157 14.409 7.98043C14.6601 7.72928 14.7857 7.42628 14.7857 7.07143ZM18 11.5714C18 13.3191 17.5277 14.9361 16.5831 16.4224C16.4563 16.617 16.2754 16.7143 16.0406 16.7143H1.95815C1.72415 16.7143 1.54329 16.617 1.41558 16.4224C0.471004 14.9421 -0.00128174 13.3251 -0.00128174 11.5714C-0.00128174 10.3526 0.236575 9.18728 0.71229 8.07557C1.188 6.96386 1.82743 6.00643 2.63058 5.20328C3.43372 4.40014 4.39115 3.76071 5.50286 3.285C6.61458 2.80928 7.77986 2.57143 8.99872 2.57143C10.2176 2.57143 11.3829 2.80928 12.4946 3.285C13.6063 3.76071 14.5637 4.40014 15.3669 5.20328C16.17 6.00643 16.8094 6.96386 17.2851 8.07557C17.7609 9.18728 17.9987 10.3526 17.9987 11.5714H18Z" fill="#A4A4A4"/>
</g>
<defs>
<clipPath id="clip0_706_56">
<rect width="18" height="18" fill="white"/>
</clipPath>
</defs>
</svg>
