<svg width="117" height="54" viewBox="0 0 117 54" fill="none" xmlns="http://www.w3.org/2000/svg">
<path d="M100.991 21.6092C100.65 21.6092 100.387 21.516 100.2 21.3308C100.016 21.1436 99.922 20.8797 99.922 20.5348C99.922 20.094 100.058 19.7186 100.333 19.4168C100.607 19.1116 100.938 18.9601 101.32 18.9601C101.631 18.9601 101.89 19.0635 102.097 19.2709C102.305 19.4769 102.408 19.7433 102.408 20.0661C102.408 20.5044 102.272 20.8703 102 21.1678C101.728 21.4614 101.394 21.6092 100.991 21.6092Z" fill="#313131"/>
<path d="M84.2779 29.9715C84.8905 29.572 85.4074 29.0304 85.8268 28.3468C86.2467 27.6644 86.4552 27.0714 86.4552 26.5627C86.4552 26.3091 86.3925 26.1157 86.2689 25.9819C86.1448 25.8494 85.9668 25.7828 85.7312 25.7828C85.2388 25.7828 84.8069 26.0707 84.4299 26.6471C84.0511 27.2217 83.8618 27.8908 83.8618 28.6524C83.8618 28.9429 83.8946 29.1909 83.9579 29.402C84.0239 29.6106 84.1297 29.8016 84.2779 29.9715ZM68.9569 30.4934C69.1824 30.5784 69.3738 30.7047 69.5371 30.8809C69.6993 31.0534 69.8293 31.271 69.9325 31.531C70.4861 31.4194 70.9201 31.1371 71.2343 30.6901C71.5511 30.2392 71.7088 29.6735 71.7088 28.9872C71.7088 28.7215 71.6809 28.4406 71.6303 28.1406C71.5758 27.8445 71.4947 27.5116 71.3825 27.1463C71.1532 27.6542 70.827 28.1983 70.4101 28.7761C69.9901 29.3544 69.5074 29.929 68.9569 30.4934ZM64.4668 32.5108C63.5164 32.3034 63.9232 31.3452 64.7429 31.531C65.5956 31.6629 67.3307 31.0947 67.9959 29.9227C68.9082 28.9213 69.857 27.5877 70.8416 25.9248C70.7231 25.8068 70.6381 25.6767 70.5913 25.5373C70.5388 25.399 70.5147 25.2379 70.5147 25.0559C70.5147 24.5942 70.6933 24.1972 71.0462 23.8681C71.4003 23.5389 71.826 23.3722 72.3214 23.3722C72.6147 23.3722 72.8503 23.4501 73.0251 23.608C73.1969 23.7622 73.2861 23.9733 73.2861 24.2397C73.2861 24.4871 73.2127 24.7389 73.0651 24.9925C72.9168 25.2468 72.6925 25.498 72.4006 25.7459C72.9193 26.3243 73.2944 26.8582 73.5237 27.346C73.7531 27.833 73.8677 28.3322 73.8677 28.8458C73.8677 29.3144 73.7866 29.7692 73.6263 30.2074C73.4623 30.6482 73.2394 31.0173 72.9593 31.3198C73.0917 31.3889 73.2489 31.4434 73.4268 31.4765C74.1325 31.6236 75.2855 31.3769 75.7828 30.8631C76.1502 30.482 76.4764 29.787 76.7602 28.7761L77.5039 26.1454H76.6424C76.5126 26.1454 76.4251 26.1296 76.377 26.0966C76.332 26.0637 76.3073 26.0053 76.3073 25.9241C76.3073 25.9114 76.3073 25.8975 76.3098 25.879C76.3137 25.8607 76.3263 25.8272 76.344 25.7738L76.4853 25.3495C76.5189 25.2379 76.5791 25.1593 76.6665 25.1169C76.7514 25.0774 76.9198 25.0559 77.1752 25.0559H77.8302L78.6961 22.1875C78.7444 22.0334 78.8019 21.8209 78.8659 21.5483C79.0509 20.7809 79.4153 20.3971 79.9657 20.3971C80.3553 20.3971 80.6569 20.4441 80.878 20.5418C81.0953 20.6413 81.2042 20.777 81.2042 20.9559C81.2042 21.0739 81.1376 21.3003 81.0015 21.6364C80.9286 21.8152 80.878 21.9573 80.8413 22.0638L79.8239 25.0566H81.3099C81.4215 25.0566 81.507 25.0725 81.5672 25.1054C81.6236 25.1396 81.654 25.1904 81.654 25.2595C81.654 25.2899 81.654 25.3178 81.6508 25.3419C81.6476 25.3629 81.642 25.387 81.6362 25.411L81.4848 25.8372C81.4519 25.9482 81.3854 26.0275 81.2916 26.0763C81.1979 26.1213 81.0318 26.1454 80.7969 26.1454H79.495L78.6278 29.0057C78.5284 29.3259 78.4529 29.6018 78.4067 29.8339C78.3585 30.0673 78.3351 30.2582 78.3351 30.406C78.3351 30.7414 78.4954 31.0053 78.8153 31.1955C79.4849 31.5919 80.6519 31.5417 81.3847 31.3623C81.7287 31.2804 82.0658 31.1683 82.3908 31.0256C82.1665 30.7294 82.0012 30.3939 81.8954 30.0166C81.7896 29.6386 81.7358 29.1965 81.7358 28.6885C81.7358 27.5058 82.1367 26.4784 82.9444 25.6039C83.7514 24.7306 84.6992 24.2943 85.7982 24.2943C86.4109 24.2943 86.898 24.4788 87.2546 24.8485C87.6113 25.2177 87.7893 25.7218 87.7893 26.3567C87.7893 27.0549 87.5353 27.8242 87.0248 28.6645C86.5141 29.5079 85.8344 30.2492 84.9829 30.8929C85.2307 31.1225 85.5018 31.2862 85.7919 31.3858C87.0608 31.8043 88.2581 31.0744 88.9815 30.0362C89.5891 29.1655 90.289 27.651 91.0879 25.4878C90.9518 25.3514 90.8523 25.2011 90.7858 25.0381C90.723 24.872 90.6888 24.6836 90.6888 24.4686C90.6888 24.0457 90.8061 23.6912 91.0392 23.4108C91.2722 23.1287 91.565 22.9911 91.9191 22.9911C92.2447 22.9911 92.5012 23.0785 92.6887 23.2568C92.8788 23.433 92.9719 23.6709 92.9719 23.9652C92.9719 24.1072 92.958 24.2397 92.9275 24.3608C92.901 24.4827 92.8522 24.6025 92.7876 24.7268C93.0873 24.9171 93.4762 25.1447 93.9551 25.4104C94.8211 25.8753 95.2563 26.3382 95.2563 26.8006C95.2563 27.1907 95.02 27.8767 94.5493 28.863C94.0749 29.8492 93.8398 30.5207 93.8398 30.874C93.8398 31.089 93.9209 31.2374 94.0844 31.3211C95.1886 31.9052 96.5005 31.3369 97.1346 30.3748C97.6275 29.6277 98.0931 28.3974 98.5276 26.6864C98.5948 26.4131 98.6696 26.0693 98.7583 25.6489C98.9357 24.7566 99.5152 24.3114 100.504 24.3114C100.733 24.3114 100.908 24.3444 101.029 24.4147C101.15 24.4813 101.21 24.5809 101.21 24.7109C101.21 24.8859 101.109 25.2328 100.905 25.7447C100.703 26.2584 100.557 26.6579 100.468 26.9419L99.6191 29.5098L99.5861 29.6157C99.3715 30.236 99.2657 30.6381 99.2657 30.8226C99.2657 31.0705 99.3468 31.243 99.5134 31.3401C99.8954 31.5621 100.968 31.5246 101.427 31.4055C101.684 31.342 101.917 31.2513 102.122 31.1334C102.054 30.9361 101.999 30.7313 101.966 30.5163C101.93 30.3013 101.912 30.0717 101.912 29.83C101.912 29.1743 102.044 28.4932 102.313 27.7918C102.583 27.0898 102.95 26.4644 103.416 25.9229C103.824 25.4397 104.31 25.0457 104.878 24.7433C105.442 24.4434 105.971 24.2931 106.46 24.2931C106.589 24.2931 106.692 24.3197 106.765 24.378C106.84 24.4325 106.876 24.5074 106.876 24.6013C106.876 24.7312 106.735 24.9361 106.448 25.2182C106.161 25.4998 105.94 25.732 105.786 25.9229C105.179 26.6857 104.714 27.455 104.387 28.239C104.064 29.0221 103.902 29.7572 103.902 30.4409C103.902 30.7674 103.973 31.021 104.119 31.2018C104.263 31.3864 104.464 31.4777 104.717 31.4777C105.324 31.4777 105.915 31.0414 106.496 30.1713C107.077 29.2999 107.375 28.3144 107.4 27.2179C107.103 27.169 106.881 27.06 106.726 26.8869C106.572 26.7144 106.496 26.4848 106.496 26.1981C106.496 25.7782 106.615 25.4295 106.85 25.1548C107.085 24.879 107.384 24.7433 107.744 24.7433C108.14 24.7433 108.444 24.9037 108.665 25.2208C108.883 25.5417 108.992 25.9863 108.992 26.5609C108.992 27.2749 108.878 28.0036 108.651 28.7444C108.424 29.4851 108.104 30.1655 107.69 30.7884C107.434 31.1771 107.166 31.5075 106.886 31.7821C108.382 31.8392 109.64 31.3909 110.741 30.4046C110.936 29.0653 111.206 27.6809 111.55 26.2559C111.894 24.8288 112.302 23.4184 112.767 22.0258C113.157 20.8734 113.522 20.0776 113.861 19.6368C114.198 19.198 114.591 18.9772 115.033 18.9772C115.33 18.9772 115.57 19.0952 115.764 19.3312C115.954 19.5664 116.051 19.8727 116.051 20.2443C116.051 20.7048 115.88 21.2914 115.535 22.0017C115.188 22.7146 114.722 23.4343 114.13 24.1694C113.678 25.6267 113.311 26.9661 113.04 28.1907C112.765 29.4122 112.626 30.224 112.626 30.6254C112.626 30.9463 112.707 31.1759 112.867 31.3179C113.025 31.4599 114.164 31.5297 114.535 31.5297C115.453 31.519 115.24 32.7974 114.192 32.7271H113.116C112.454 32.7271 111.941 32.6338 111.576 32.443C111.21 32.2559 110.971 31.9616 110.866 31.5659C110.475 31.926 110.061 32.2032 109.617 32.3972C108.04 33.1057 104.099 33.4583 102.78 32.0973C101.883 32.5438 100.879 32.7264 99.8852 32.7264C99.1251 32.7264 98.553 32.6268 98.1722 32.4303C97.7927 32.2312 97.5654 31.9135 97.4963 31.4746C97.1453 31.8779 96.7709 32.1824 96.3668 32.3859C95.3685 32.892 93.3388 32.8279 92.4423 32.3593C91.978 32.1132 91.7449 31.7181 91.7449 31.1664C91.7449 30.6767 91.9678 29.9481 92.4126 28.984C92.8566 28.0182 93.0809 27.3986 93.0809 27.1266C93.0809 26.9965 93.0042 26.8633 92.851 26.7245C92.6963 26.5849 92.4367 26.4099 92.0718 26.1949C91.283 28.4806 90.4677 30.1262 89.6245 31.1271C88.8866 32.006 87.5664 32.7264 86.4109 32.7264C85.7495 32.7264 85.1699 32.6536 84.6674 32.5089C84.1664 32.363 83.7318 32.1398 83.3657 31.8411C82.7955 32.1132 82.2215 32.3218 81.6439 32.4702C80.4694 32.7727 78.8749 32.8539 77.7085 32.4487C77.1771 32.261 76.7925 31.9921 76.5569 31.6344C76.18 31.9609 75.7625 32.2185 75.3063 32.4062C74.5203 32.7353 73.5376 32.8057 72.7008 32.6307C72.4012 32.5641 72.099 32.4645 71.7975 32.3288C71.4377 32.476 71.0899 32.585 70.7586 32.658C70.4266 32.7271 70.1143 32.7632 69.8248 32.7632C69.3662 32.7632 68.9283 32.6878 68.5167 32.5362C68.103 32.3859 67.7622 32.1766 67.4903 31.9109C67.2053 32.1283 66.8942 32.3072 66.5503 32.443C66.2088 32.5799 65.6646 32.7473 64.4668 32.5108Z" fill="#313131"/>
<path d="M64.4776 25.3941C64.4737 25.3757 64.4707 25.3567 64.4668 25.3371C64.413 25.0028 64.4174 24.7257 64.4174 24.3933C64.4174 23.3438 64.7284 22.2993 65.156 21.3499C65.6704 20.2083 66.3704 19.1625 67.1933 18.2196C67.9263 17.3805 68.7714 16.5802 69.7253 15.9973C70.4653 15.547 71.3092 15.204 72.1871 15.204C72.5659 15.204 72.9479 15.2699 73.2849 15.4468C73.5606 15.5909 73.7861 15.8052 73.9717 16.0506C74.1593 15.9909 74.3487 15.9009 74.4727 15.7627C74.6261 15.5921 74.6718 15.3619 74.6718 15.138C74.6718 14.5901 74.3543 14.1988 73.9159 13.8995C73.3015 13.479 72.5558 13.342 71.8217 13.342C70.5724 13.342 69.3782 13.6845 68.2652 14.2387C66.9755 14.8786 65.8548 15.7837 64.8742 16.8319C63.9778 17.7883 63.177 18.8524 62.5992 20.0346C62.147 20.9611 61.7985 21.9999 61.7985 23.0425C61.7985 23.7077 61.9082 24.3692 62.1837 24.9775C62.3997 25.4537 62.7089 25.8825 63.17 26.1424L63.6325 26.4037L63.1953 26.7037C60.9668 28.2328 58.9902 30.0871 57.4819 32.3416C56.3448 34.0407 55.3826 36.0618 55.3826 38.1483C55.3826 39.2581 55.7025 40.2551 56.5203 41.0313C57.361 41.829 58.4391 42.112 59.5775 42.112C60.9294 42.112 62.2033 41.6706 63.3695 41.0097C64.8874 40.1497 66.2539 38.915 67.436 37.6428C68.0106 37.0257 68.5864 36.3637 69.0596 35.6654C69.2054 35.4491 69.6031 34.8384 69.6031 34.5702C69.6031 34.2886 69.4075 34.0673 69.2003 33.9011C68.9513 33.7006 68.6682 33.5485 68.3412 33.5485C68.1264 33.5897 67.5829 34.326 67.4607 34.4972C66.9722 35.1809 66.4521 35.8481 65.8883 36.4721C65.0712 37.3802 64.1381 38.2509 63.0965 38.8953C62.3288 39.3691 61.4292 39.7647 60.5125 39.7647C60.0494 39.7647 59.5877 39.6493 59.2614 39.3011C58.9371 38.9536 58.8369 38.4914 58.8369 38.0284C58.8369 36.4081 59.7681 34.4941 60.5512 33.1154C61.7403 31.0194 63.2498 29.1269 64.9552 27.4292L65.0737 27.3112L65.2384 27.3366C65.5127 27.3785 65.7927 27.4215 66.0701 27.4483C66.2488 27.4666 66.4288 27.4774 66.608 27.4774C67.3625 27.4774 68.2076 27.3658 68.855 26.9491C69.3137 26.6555 69.6031 26.268 69.6031 25.7105C69.6031 25.344 69.4765 25.0497 69.1971 24.8094C68.8765 24.5322 68.4571 24.4453 68.0428 24.4453C67.5702 24.4453 67.1066 24.557 66.6669 24.7269C66.0809 24.9553 65.5121 25.2971 64.9926 25.649L64.4769 25.9985L64.4776 25.3941Z" fill="#313131"/>
<mask id="mask0_401_51" style="mask-type:alpha" maskUnits="userSpaceOnUse" x="0" y="0" width="50" height="54">
<path d="M45.7665 30.298C46.9353 29.9751 48.0834 29.7047 49.217 29.473V26.3501V16.2384H49.1985C49.2071 15.0655 48.9298 13.9013 48.4081 12.889C47.8158 11.7381 46.911 10.753 45.7387 10.0938L43.8425 9.02603L43.8384 9.02718L36.7231 5.01972L27.808 0L27.8028 0.00982225C27.7965 0.00635559 27.7907 0.00346666 27.7843 0C27.5336 0.421199 27.2909 0.845865 27.065 1.27804C25.8609 3.58164 24.9873 6.11114 24.9873 8.65683C24.9873 9.46109 24.9752 10.133 25.1254 10.9431C25.1341 10.9893 25.1462 11.0361 25.1566 11.0829V12.5453L26.6051 11.6988C28.064 10.8449 29.6621 10.0169 31.3105 9.46398C32.5435 9.04972 33.8458 8.77932 35.1752 8.77932C36.3377 8.77932 37.5176 8.99309 38.4189 9.66447C39.2018 10.2463 39.5594 10.957 39.5594 11.849C39.5594 13.1976 38.7442 14.137 37.4563 14.8506C35.6346 15.86 33.2634 16.1309 31.1424 16.1309C30.638 16.1309 30.133 16.1044 29.6303 16.0622C28.8521 15.9957 28.0657 15.8894 27.2926 15.7877L26.8298 15.7265L26.4976 16.0119C21.7038 20.128 17.4652 24.7144 14.1217 29.7965C11.9232 33.1378 9.30762 37.7785 9.30762 41.7068C9.30762 42.8265 9.58842 43.9509 10.5001 44.7904C11.4165 45.6351 12.713 45.9171 14.0148 45.9171C16.5916 45.9171 19.1188 44.9574 21.2745 43.8082C30.6825 38.7896 32.5568 33.9496 45.7665 30.298Z" fill="white"/>
<path d="M33.4688 40.772C30.1455 43.8544 26.3073 46.849 22.0433 48.9314C20.6601 49.6073 19.2226 50.1874 17.7383 50.6341L21.4083 52.7013L21.4141 52.6915C22.3183 53.2196 23.3306 53.5195 24.3833 53.5605C25.525 53.605 26.6655 53.349 27.7159 52.7568L31.5154 50.6167L31.5136 50.6133L36.7229 47.6805L45.6409 42.6579L45.6357 42.6492C46.7294 42.0575 47.6388 41.1533 48.2663 40.048L48.2744 40.0521C48.8689 39.0011 49.2167 37.7751 49.2167 36.5005V32.9951C43.8151 34.3234 38.6318 36.6553 33.4688 40.772Z" fill="white"/>
<path d="M0.158311 37.9219C1.10991 34.335 3.17026 30.9204 5.49755 27.9205C9.73496 22.4571 15.2897 17.962 21.5499 14.2544L22.7771 13.527L21.4812 12.8966C20.1835 12.2634 19.3139 11.2257 18.709 10.073C17.9336 8.59566 17.6262 6.99464 17.6262 5.37976C17.6262 4.17105 17.8521 2.96465 18.2254 1.78772L17.7019 2.08239L17.7031 2.08527L12.4938 5.01865L3.57586 10.043L3.58164 10.0517C2.48213 10.6456 1.5704 11.5556 0.941776 12.6678C0.347244 13.7188 0 14.9396 0 16.1992V26.3502V36.4624H0.0184889C0.0150222 36.9541 0.0647109 37.4435 0.158311 37.9219Z" fill="white"/>
</mask>
<g mask="url(#mask0_401_51)">
<g filter="url(#filter0_f_401_51)">
<path d="M47.8442 31.4998C21.9156 51.4003 -15.2362 46.5135 -35.1367 20.5849C-55.0372 -5.3437 -50.1504 -42.4955 -24.2218 -62.396C1.70679 -82.2965 38.8586 -77.4097 58.7591 -51.4811C78.6596 -25.5525 73.7728 11.5993 47.8442 31.4998Z" fill="#9746FF"/>
</g>
<g filter="url(#filter1_f_401_51)">
<path d="M-33.1663 19.4758C-16.2521 41.5136 15.3248 45.667 37.3626 28.7528C59.4004 11.8386 63.5538 -19.7383 46.6396 -41.7761C29.7254 -63.8139 -1.8515 -67.9673 -23.8893 -51.0531C-45.9271 -34.1389 -50.0805 -2.56201 -33.1663 19.4758Z" fill="#60D5E4"/>
</g>
<g filter="url(#filter2_f_401_51)">
<path d="M-7.9944 33.867C-2.75559 40.6927 7.02465 41.9792 13.8504 36.7404C20.6761 31.5015 21.9626 21.7213 16.7237 14.8956C11.4849 8.06984 1.70468 6.7834 -5.12104 12.0222C-11.9468 17.261 -13.2332 27.0413 -7.9944 33.867Z" fill="#FF11A0"/>
</g>
<g filter="url(#filter3_f_401_51)">
<path d="M30.758 1.6965C43.422 -10.9675 63.9544 -10.9675 76.6184 1.6965C89.2824 14.3605 89.2824 34.8929 76.6184 47.5569C63.9544 60.2209 43.422 60.2209 30.758 47.5569C18.094 34.8929 18.094 14.3605 30.758 1.6965Z" fill="#9746FF"/>
</g>
<g filter="url(#filter4_f_401_51)">
<path d="M75.627 2.43986C64.8634 -8.32379 47.412 -8.32379 36.6484 2.43986C25.8847 13.2035 25.8847 30.6549 36.6484 41.4185C47.412 52.1822 64.8634 52.1822 75.627 41.4185C86.3907 30.6549 86.3907 13.2035 75.627 2.43986Z" fill="#60D5E4"/>
</g>
<g filter="url(#filter5_f_401_51)">
<path d="M60.9238 -3.57964C57.59 -6.91345 52.1849 -6.91345 48.8511 -3.57964C45.5172 -0.24583 45.5172 5.15934 48.8511 8.49315C52.1849 11.827 57.59 11.827 60.9238 8.49315C64.2577 5.15934 64.2577 -0.24583 60.9238 -3.57964Z" fill="#FF11A0"/>
</g>
</g>
<path d="M70.3911 39.5874C70.3911 38.855 70.561 38.2676 70.9009 37.8252C71.2407 37.3799 71.6963 37.1572 72.2676 37.1572C72.7715 37.1572 73.1787 37.333 73.4893 37.6846V35.25H74.5571V42H73.5903L73.5376 41.5078C73.2183 41.8945 72.792 42.0879 72.2588 42.0879C71.7021 42.0879 71.251 41.8638 70.9053 41.4155C70.5625 40.9673 70.3911 40.3579 70.3911 39.5874ZM71.459 39.6797C71.459 40.1631 71.5513 40.541 71.7358 40.8135C71.9233 41.083 72.1885 41.2178 72.5312 41.2178C72.9678 41.2178 73.2871 41.0229 73.4893 40.6333V38.603C73.293 38.2222 72.9766 38.0317 72.54 38.0317C72.1943 38.0317 71.9277 38.1694 71.7402 38.4448C71.5527 38.7173 71.459 39.1289 71.459 39.6797ZM77.7651 42.0879C77.0884 42.0879 76.5391 41.8755 76.1172 41.4507C75.6982 41.0229 75.4888 40.4546 75.4888 39.7456V39.6138C75.4888 39.1392 75.5796 38.7158 75.7612 38.3438C75.9458 37.9688 76.2036 37.6772 76.5347 37.4692C76.8657 37.2612 77.2349 37.1572 77.6421 37.1572C78.2896 37.1572 78.7891 37.3638 79.1406 37.7769C79.4951 38.1899 79.6724 38.7744 79.6724 39.5303V39.9609H76.5654C76.5977 40.3535 76.728 40.6641 76.9565 40.8926C77.188 41.1211 77.478 41.2354 77.8267 41.2354C78.3159 41.2354 78.7144 41.0376 79.022 40.6421L79.5977 41.1914C79.4072 41.4756 79.1523 41.6968 78.833 41.855C78.5166 42.0103 78.1606 42.0879 77.7651 42.0879ZM77.6377 38.0142C77.3447 38.0142 77.1074 38.1167 76.9258 38.3218C76.7471 38.5269 76.6328 38.8125 76.583 39.1787H78.6177V39.0996C78.5942 38.7422 78.499 38.4727 78.332 38.291C78.165 38.1064 77.9336 38.0142 77.6377 38.0142ZM81.5093 37.2451L81.54 37.7417C81.874 37.3521 82.3311 37.1572 82.9111 37.1572C83.5469 37.1572 83.9819 37.4004 84.2163 37.8867C84.562 37.4004 85.0483 37.1572 85.6753 37.1572C86.1997 37.1572 86.5894 37.3022 86.8442 37.5923C87.1021 37.8823 87.2339 38.3101 87.2397 38.8755V42H86.1719V38.9062C86.1719 38.6045 86.106 38.3833 85.9741 38.2427C85.8423 38.1021 85.624 38.0317 85.3193 38.0317C85.0762 38.0317 84.877 38.0977 84.7217 38.2295C84.5693 38.3584 84.4624 38.5283 84.4009 38.7393L84.4053 42H83.3374V38.8711C83.3228 38.3115 83.0371 38.0317 82.4805 38.0317C82.0527 38.0317 81.7495 38.2061 81.5708 38.5547V42H80.5029V37.2451H81.5093ZM88.1362 39.5786C88.1362 39.1128 88.2285 38.6938 88.4131 38.3218C88.5977 37.9468 88.8569 37.6597 89.1909 37.4604C89.5249 37.2583 89.9087 37.1572 90.3423 37.1572C90.9839 37.1572 91.5039 37.3638 91.9023 37.7769C92.3037 38.1899 92.5205 38.7378 92.5527 39.4204L92.5571 39.6709C92.5571 40.1396 92.4663 40.5586 92.2847 40.9277C92.106 41.2969 91.8481 41.5825 91.5112 41.7847C91.1772 41.9868 90.7905 42.0879 90.3511 42.0879C89.6802 42.0879 89.1426 41.8652 88.7383 41.4199C88.3369 40.9717 88.1362 40.3755 88.1362 39.6313V39.5786ZM89.2041 39.6709C89.2041 40.1602 89.3052 40.5439 89.5073 40.8223C89.7095 41.0977 89.9907 41.2354 90.3511 41.2354C90.7114 41.2354 90.9912 41.0947 91.1904 40.8135C91.3926 40.5322 91.4937 40.1206 91.4937 39.5786C91.4937 39.0981 91.3896 38.7173 91.1816 38.436C90.9766 38.1548 90.6968 38.0142 90.3423 38.0142C89.9937 38.0142 89.7168 38.1533 89.5117 38.4316C89.3066 38.707 89.2041 39.1201 89.2041 39.6709ZM98.3667 40.708C98.3667 40.5176 98.2876 40.3726 98.1294 40.2729C97.9741 40.1733 97.7148 40.0854 97.3516 40.0093C96.9883 39.9331 96.6851 39.8364 96.4419 39.7192C95.9087 39.4614 95.6421 39.0879 95.6421 38.5986C95.6421 38.1885 95.8149 37.8457 96.1606 37.5703C96.5063 37.2949 96.9458 37.1572 97.479 37.1572C98.0474 37.1572 98.5059 37.2979 98.8545 37.5791C99.2061 37.8604 99.3818 38.2251 99.3818 38.6733H98.314C98.314 38.4683 98.2378 38.2983 98.0854 38.1636C97.9331 38.0259 97.731 37.957 97.479 37.957C97.2446 37.957 97.0527 38.0112 96.9033 38.1196C96.7568 38.228 96.6836 38.373 96.6836 38.5547C96.6836 38.7188 96.7524 38.8462 96.8901 38.937C97.0278 39.0278 97.3062 39.1201 97.7251 39.2139C98.144 39.3047 98.4722 39.4146 98.7095 39.5435C98.9497 39.6694 99.127 39.8218 99.2412 40.0005C99.3584 40.1792 99.417 40.396 99.417 40.6509C99.417 41.0786 99.2397 41.4258 98.8853 41.6924C98.5308 41.9561 98.0664 42.0879 97.4922 42.0879C97.1025 42.0879 96.7554 42.0176 96.4507 41.877C96.146 41.7363 95.9087 41.543 95.7388 41.2969C95.5688 41.0508 95.4839 40.7856 95.4839 40.5015H96.521C96.5356 40.7534 96.6309 40.9482 96.8066 41.0859C96.9824 41.2207 97.2153 41.2881 97.5054 41.2881C97.7866 41.2881 98.0005 41.2354 98.147 41.1299C98.2935 41.0215 98.3667 40.8809 98.3667 40.708ZM101.403 37.7637C101.752 37.3594 102.193 37.1572 102.726 37.1572C103.74 37.1572 104.254 37.7358 104.269 38.8931V42H103.201V38.9326C103.201 38.6045 103.129 38.373 102.985 38.2383C102.845 38.1006 102.637 38.0317 102.361 38.0317C101.934 38.0317 101.614 38.2222 101.403 38.603V42H100.335V35.25H101.403V37.7637ZM105.152 39.5786C105.152 39.1128 105.244 38.6938 105.429 38.3218C105.613 37.9468 105.873 37.6597 106.207 37.4604C106.541 37.2583 106.924 37.1572 107.358 37.1572C108 37.1572 108.52 37.3638 108.918 37.7769C109.319 38.1899 109.536 38.7378 109.568 39.4204L109.573 39.6709C109.573 40.1396 109.482 40.5586 109.3 40.9277C109.122 41.2969 108.864 41.5825 108.527 41.7847C108.193 41.9868 107.806 42.0879 107.367 42.0879C106.696 42.0879 106.158 41.8652 105.754 41.4199C105.353 40.9717 105.152 40.3755 105.152 39.6313V39.5786ZM106.22 39.6709C106.22 40.1602 106.321 40.5439 106.523 40.8223C106.725 41.0977 107.006 41.2354 107.367 41.2354C107.727 41.2354 108.007 41.0947 108.206 40.8135C108.408 40.5322 108.509 40.1206 108.509 39.5786C108.509 39.0981 108.405 38.7173 108.197 38.436C107.992 38.1548 107.712 38.0142 107.358 38.0142C107.009 38.0142 106.732 38.1533 106.527 38.4316C106.322 38.707 106.22 39.1201 106.22 39.6709ZM114.64 39.6709C114.64 40.4062 114.473 40.9937 114.139 41.4331C113.805 41.8696 113.356 42.0879 112.794 42.0879C112.272 42.0879 111.855 41.9165 111.542 41.5737V43.8281H110.474V37.2451H111.458L111.502 37.7285C111.815 37.3477 112.242 37.1572 112.781 37.1572C113.361 37.1572 113.815 37.374 114.143 37.8076C114.474 38.2383 114.64 38.8374 114.64 39.605V39.6709ZM113.576 39.5786C113.576 39.104 113.481 38.7275 113.291 38.4492C113.103 38.1709 112.833 38.0317 112.482 38.0317C112.045 38.0317 111.732 38.2119 111.542 38.5723V40.6816C111.735 41.0508 112.051 41.2354 112.491 41.2354C112.831 41.2354 113.096 41.0991 113.286 40.8267C113.479 40.5513 113.576 40.1353 113.576 39.5786Z" fill="#313131"/>
<defs>
<filter id="filter0_f_401_51" x="-78.8408" y="-106.1" width="181.304" height="181.304" filterUnits="userSpaceOnUse" color-interpolation-filters="sRGB">
<feFlood flood-opacity="0" result="BackgroundImageFix"/>
<feBlend mode="normal" in="SourceGraphic" in2="BackgroundImageFix" result="shape"/>
<feGaussianBlur stdDeviation="15.7336" result="effect1_foregroundBlur_401_51"/>
</filter>
<filter id="filter1_f_401_51" x="-68.7407" y="-86.6275" width="150.955" height="150.955" filterUnits="userSpaceOnUse" color-interpolation-filters="sRGB">
<feFlood flood-opacity="0" result="BackgroundImageFix"/>
<feBlend mode="normal" in="SourceGraphic" in2="BackgroundImageFix" result="shape"/>
<feGaussianBlur stdDeviation="12.5869" result="effect1_foregroundBlur_401_51"/>
</filter>
<filter id="filter2_f_401_51" x="-36.3896" y="-16.3729" width="81.5085" height="81.5085" filterUnits="userSpaceOnUse" color-interpolation-filters="sRGB">
<feFlood flood-opacity="0" result="BackgroundImageFix"/>
<feBlend mode="normal" in="SourceGraphic" in2="BackgroundImageFix" result="shape"/>
<feGaussianBlur stdDeviation="12.5869" result="effect1_foregroundBlur_401_51"/>
</filter>
<filter id="filter3_f_401_51" x="-10.2072" y="-39.2687" width="127.791" height="127.791" filterUnits="userSpaceOnUse" color-interpolation-filters="sRGB">
<feFlood flood-opacity="0" result="BackgroundImageFix"/>
<feBlend mode="normal" in="SourceGraphic" in2="BackgroundImageFix" result="shape"/>
<feGaussianBlur stdDeviation="15.7336" result="effect1_foregroundBlur_401_51"/>
</filter>
<filter id="filter4_f_401_51" x="3.40182" y="-30.8067" width="105.472" height="105.472" filterUnits="userSpaceOnUse" color-interpolation-filters="sRGB">
<feFlood flood-opacity="0" result="BackgroundImageFix"/>
<feBlend mode="normal" in="SourceGraphic" in2="BackgroundImageFix" result="shape"/>
<feGaussianBlur stdDeviation="12.5869" result="effect1_foregroundBlur_401_51"/>
</filter>
<filter id="filter5_f_401_51" x="21.1769" y="-31.2538" width="67.4212" height="67.4211" filterUnits="userSpaceOnUse" color-interpolation-filters="sRGB">
<feFlood flood-opacity="0" result="BackgroundImageFix"/>
<feBlend mode="normal" in="SourceGraphic" in2="BackgroundImageFix" result="shape"/>
<feGaussianBlur stdDeviation="12.5869" result="effect1_foregroundBlur_401_51"/>
</filter>
</defs>
</svg>
