<svg width="14" height="14" viewBox="0 0 14 14" fill="none" xmlns="http://www.w3.org/2000/svg">
<path d="M13.8136 6.55005L12.2227 4.95914C12.0407 4.7771 11.7669 4.72275 11.5292 4.82117C11.2914 4.91968 11.1363 5.1517 11.1363 5.40909V6.36364H7.63638V2.86363H8.59093C8.84832 2.86363 9.08034 2.70857 9.17885 2.47079C9.27731 2.233 9.22288 1.95928 9.04088 1.77728L7.44997 0.186368C7.20149 -0.0621532 6.79855 -0.0621532 6.55003 0.186368L4.95912 1.77728C4.77712 1.95928 4.72269 2.233 4.82115 2.47079C4.91966 2.70857 5.15172 2.86363 5.40907 2.86363H6.36366V6.36364H2.86366V5.40909C2.86366 5.1517 2.7086 4.91964 2.47081 4.82117C2.23298 4.72271 1.95926 4.77714 1.7773 4.95914L0.186391 6.55005C-0.0621303 6.79857 -0.0621303 7.20147 0.186391 7.44999L1.7773 9.0409C1.89906 9.16266 2.06175 9.22731 2.22742 9.22731C2.30938 9.22731 2.39207 9.21145 2.47081 9.17887C2.7086 9.08036 2.86366 8.8483 2.86366 8.59095V7.63636H6.36366V11.1364H5.40911C5.15172 11.1364 4.91966 11.2914 4.8212 11.5292C4.72273 11.767 4.77716 12.0407 4.95916 12.2227L6.55007 13.8136C6.67429 13.9379 6.83715 14 7.00002 14C7.16289 14 7.32576 13.9379 7.44997 13.8136L9.04088 12.2227C9.22288 12.0407 9.27731 11.767 9.17885 11.5292C9.08034 11.2914 8.84832 11.1363 8.59093 11.1363H7.63638V7.63636H11.1364V8.59091C11.1364 8.8483 11.2914 9.08036 11.5292 9.17882C11.6079 9.21145 11.6907 9.22727 11.7726 9.22727C11.9382 9.22727 12.101 9.16262 12.2227 9.04086L13.8136 7.44995C14.0622 7.20147 14.0622 6.79857 13.8136 6.55005Z" fill="#A4A4A4"/>
</svg>
