<svg width="24" height="26" viewBox="0 0 24 26" fill="none" xmlns="http://www.w3.org/2000/svg">
<path d="M22.2082 14.7044C22.7698 14.5449 23.3251 14.4124 23.8835 14.3087V7.87714H23.8723C23.8731 7.31359 23.7414 6.75777 23.4878 6.25448C23.1996 5.6866 22.7507 5.21606 22.197 4.90147L21.2812 4.38133L13.4966 0H13.4871C13.3626 0.207419 13.2477 0.405265 13.1329 0.623853C12.5505 1.73753 12.1261 2.96609 12.1261 4.20422C12.1105 4.57771 12.1319 4.95182 12.1899 5.32109C12.1899 5.34184 12.1995 5.36258 12.1995 5.39449V6.10131L12.9079 5.69604C13.6295 5.26021 14.3928 4.8973 15.1863 4.61268C15.7891 4.40329 16.4214 4.29127 17.0594 4.28081C17.6211 4.28081 18.1939 4.38452 18.631 4.70682C18.8057 4.8221 18.9481 4.98005 19.0447 5.16572C19.1413 5.35139 19.1889 5.55863 19.1831 5.76784C19.1831 6.42361 18.7874 6.88471 18.162 7.22456C17.278 7.71439 16.1229 7.85001 15.1033 7.85001C14.8528 7.85001 14.6135 7.83884 14.3646 7.8181C13.9897 7.78779 13.6051 7.73513 13.2302 7.68248L13.0004 7.65216L12.8409 7.78779C10.5373 9.72619 8.51632 11.9775 6.83691 14.4763C5.76471 16.0989 4.49627 18.3486 4.49627 20.2505C4.49627 20.793 4.63029 21.3434 5.07864 21.7503C5.52698 22.1571 6.15083 22.3007 6.78585 22.3007C8.03355 22.3007 9.26211 21.8332 10.3136 21.2812C14.8911 18.8273 15.7958 16.4739 22.2082 14.7044Z" fill="black"/>
<path d="M16.2441 19.7848C14.6311 21.2814 12.7643 22.7286 10.6981 23.7481C10.0272 24.0853 9.32707 24.3609 8.60634 24.5714L10.3854 25.5702C10.8209 25.8303 11.3145 25.9773 11.8213 25.9978C12.3842 26.0191 12.9422 25.8855 13.4344 25.6117L22.1348 20.7102C22.6668 20.4144 23.108 19.9791 23.4113 19.4514C23.7122 18.9253 23.8701 18.3295 23.8692 17.7234V16.0258C21.0786 16.6935 18.4731 17.978 16.2441 19.7848Z" fill="black"/>
<path d="M0.0829677 18.3982C0.540885 16.6606 1.53969 14.9981 2.67411 13.5494C4.73554 10.896 7.43039 8.72129 10.4683 6.91994L11.0618 6.56733L10.438 6.26418C9.8515 5.96615 9.3794 5.4834 9.09453 4.89043C8.7395 4.18418 8.56102 3.40237 8.57439 2.61201C8.58361 2.01569 8.68203 1.42411 8.86637 0.856928L8.61587 1.0101L6.06302 2.43491L1.73753 4.86969C1.20086 5.16714 0.758567 5.60943 0.461109 6.14611C0.161957 6.66673 0.00307247 7.25608 0 7.85652V17.6914H0.0111687C0.00920109 17.9289 0.0332779 18.1659 0.0829677 18.3982Z" fill="black"/>
</svg>
