<svg width="120" height="40" viewBox="0 0 120 40" fill="none" xmlns="http://www.w3.org/2000/svg">
<path d="M49.7882 25V14.425H53.6282C54.8382 14.425 55.8582 14.635 56.6882 15.055C57.5282 15.465 58.1632 16.065 58.5932 16.855C59.0232 17.635 59.2382 18.585 59.2382 19.705C59.2382 20.815 59.0232 21.765 58.5932 22.555C58.1632 23.345 57.5282 23.95 56.6882 24.37C55.8582 24.79 54.8382 25 53.6282 25H49.7882ZM51.7232 23.395H53.5082C54.7882 23.395 55.7382 23.09 56.3582 22.48C56.9782 21.87 57.2882 20.945 57.2882 19.705C57.2882 18.455 56.9782 17.53 56.3582 16.93C55.7382 16.32 54.7882 16.015 53.5082 16.015H51.7232V23.395ZM64.7239 25.15C63.4539 25.15 62.4589 24.8 61.7389 24.1C61.0189 23.4 60.6589 22.44 60.6589 21.22C60.6589 20.43 60.8139 19.74 61.1239 19.15C61.4339 18.56 61.8639 18.1 62.4139 17.77C62.9739 17.44 63.6239 17.275 64.3639 17.275C65.0939 17.275 65.7039 17.43 66.1939 17.74C66.6839 18.05 67.0539 18.485 67.3039 19.045C67.5639 19.605 67.6939 20.26 67.6939 21.01V21.505H62.1739V20.515H66.3589L66.1039 20.725C66.1039 20.025 65.9539 19.49 65.6539 19.12C65.3639 18.75 64.9389 18.565 64.3789 18.565C63.7589 18.565 63.2789 18.785 62.9389 19.225C62.6089 19.665 62.4439 20.28 62.4439 21.07V21.265C62.4439 22.085 62.6439 22.7 63.0439 23.11C63.4539 23.51 64.0289 23.71 64.7689 23.71C65.1989 23.71 65.5989 23.655 65.9689 23.545C66.3489 23.425 66.7089 23.235 67.0489 22.975L67.6039 24.235C67.2439 24.525 66.8139 24.75 66.3139 24.91C65.8139 25.07 65.2839 25.15 64.7239 25.15ZM69.2817 25V19.315C69.2817 19.005 69.2717 18.69 69.2517 18.37C69.2317 18.05 69.2017 17.735 69.1617 17.425H70.9767L71.1267 18.925H70.9467C71.1567 18.405 71.4767 18 71.9067 17.71C72.3467 17.42 72.8667 17.275 73.4667 17.275C74.0667 17.275 74.5617 17.42 74.9517 17.71C75.3517 17.99 75.6317 18.43 75.7917 19.03H75.5517C75.7617 18.49 76.1067 18.065 76.5867 17.755C77.0667 17.435 77.6167 17.275 78.2367 17.275C79.0867 17.275 79.7217 17.525 80.1417 18.025C80.5617 18.525 80.7717 19.305 80.7717 20.365V25H78.8967V20.44C78.8967 19.84 78.7967 19.41 78.5967 19.15C78.3967 18.88 78.0767 18.745 77.6367 18.745C77.1167 18.745 76.7067 18.93 76.4067 19.3C76.1067 19.66 75.9567 20.15 75.9567 20.77V25H74.0817V20.44C74.0817 19.84 73.9817 19.41 73.7817 19.15C73.5817 18.88 73.2617 18.745 72.8217 18.745C72.3017 18.745 71.8917 18.93 71.5917 19.3C71.3017 19.66 71.1567 20.15 71.1567 20.77V25H69.2817ZM86.1929 25.15C85.4129 25.15 84.7379 24.99 84.1679 24.67C83.5979 24.35 83.1529 23.895 82.8329 23.305C82.5229 22.715 82.3679 22.015 82.3679 21.205C82.3679 20.395 82.5229 19.7 82.8329 19.12C83.1529 18.53 83.5979 18.075 84.1679 17.755C84.7379 17.435 85.4129 17.275 86.1929 17.275C86.9729 17.275 87.6479 17.435 88.2179 17.755C88.7979 18.075 89.2429 18.53 89.5529 19.12C89.8729 19.7 90.0329 20.395 90.0329 21.205C90.0329 22.015 89.8729 22.715 89.5529 23.305C89.2429 23.895 88.7979 24.35 88.2179 24.67C87.6479 24.99 86.9729 25.15 86.1929 25.15ZM86.1929 23.71C86.7829 23.71 87.2529 23.505 87.6029 23.095C87.9529 22.675 88.1279 22.045 88.1279 21.205C88.1279 20.365 87.9529 19.74 87.6029 19.33C87.2529 18.92 86.7829 18.715 86.1929 18.715C85.6029 18.715 85.1329 18.92 84.7829 19.33C84.4329 19.74 84.2579 20.365 84.2579 21.205C84.2579 22.045 84.4329 22.675 84.7829 23.095C85.1329 23.505 85.6029 23.71 86.1929 23.71ZM98.4661 25.15C97.8161 25.15 97.2161 25.075 96.6661 24.925C96.1261 24.765 95.6711 24.545 95.3011 24.265L95.8261 23.005C96.2061 23.265 96.6261 23.465 97.0861 23.605C97.5461 23.745 98.0111 23.815 98.4811 23.815C98.9811 23.815 99.3511 23.73 99.5911 23.56C99.8411 23.39 99.9661 23.16 99.9661 22.87C99.9661 22.64 99.8861 22.46 99.7261 22.33C99.5761 22.19 99.3311 22.085 98.9911 22.015L97.4911 21.73C96.8511 21.59 96.3611 21.35 96.0211 21.01C95.6911 20.67 95.5261 20.225 95.5261 19.675C95.5261 19.205 95.6511 18.79 95.9011 18.43C96.1611 18.07 96.5261 17.79 96.9961 17.59C97.4761 17.38 98.0361 17.275 98.6761 17.275C99.2361 17.275 99.7611 17.35 100.251 17.5C100.751 17.65 101.171 17.875 101.511 18.175L100.971 19.39C100.661 19.14 100.306 18.945 99.9061 18.805C99.5061 18.665 99.1161 18.595 98.7361 18.595C98.2161 18.595 97.8361 18.69 97.5961 18.88C97.3561 19.06 97.2361 19.295 97.2361 19.585C97.2361 19.805 97.3061 19.99 97.4461 20.14C97.5961 20.28 97.8261 20.385 98.1361 20.455L99.6361 20.74C100.306 20.87 100.811 21.1 101.151 21.43C101.501 21.75 101.676 22.19 101.676 22.75C101.676 23.25 101.541 23.68 101.271 24.04C101.001 24.4 100.626 24.675 100.146 24.865C99.6661 25.055 99.1061 25.15 98.4661 25.15ZM103.281 25V17.425H105.156V25H103.281ZM103.176 16V14.17H105.261V16H103.176ZM110.432 25.15C109.532 25.15 108.852 24.915 108.392 24.445C107.932 23.975 107.702 23.27 107.702 22.33V18.835H106.247V17.425H107.702V15.49L109.577 15.01V17.425H111.602V18.835H109.577V22.21C109.577 22.73 109.677 23.095 109.877 23.305C110.077 23.515 110.352 23.62 110.702 23.62C110.892 23.62 111.052 23.605 111.182 23.575C111.322 23.545 111.457 23.505 111.587 23.455V24.94C111.417 25.01 111.227 25.06 111.017 25.09C110.817 25.13 110.622 25.15 110.432 25.15ZM116.462 25.15C115.192 25.15 114.197 24.8 113.477 24.1C112.757 23.4 112.397 22.44 112.397 21.22C112.397 20.43 112.552 19.74 112.862 19.15C113.172 18.56 113.602 18.1 114.152 17.77C114.712 17.44 115.362 17.275 116.102 17.275C116.832 17.275 117.442 17.43 117.932 17.74C118.422 18.05 118.792 18.485 119.042 19.045C119.302 19.605 119.432 20.26 119.432 21.01V21.505H113.912V20.515H118.097L117.842 20.725C117.842 20.025 117.692 19.49 117.392 19.12C117.102 18.75 116.677 18.565 116.117 18.565C115.497 18.565 115.017 18.785 114.677 19.225C114.347 19.665 114.182 20.28 114.182 21.07V21.265C114.182 22.085 114.382 22.7 114.782 23.11C115.192 23.51 115.767 23.71 116.507 23.71C116.937 23.71 117.337 23.655 117.707 23.545C118.087 23.425 118.447 23.235 118.787 22.975L119.342 24.235C118.982 24.525 118.552 24.75 118.052 24.91C117.552 25.07 117.022 25.15 116.462 25.15Z" fill="black"/>
<path d="M34.1664 22.6222C35.0305 22.3767 35.8847 22.173 36.7438 22.0134V12.1187H36.7266C36.7278 11.2517 36.5251 10.3966 36.1351 9.62228C35.6917 8.74862 35.0011 8.02471 34.1493 7.54072L32.7403 6.7405L20.764 0H20.7493C20.5578 0.319106 20.3811 0.623484 20.2044 0.959773C19.3084 2.67313 18.6555 4.56322 18.6555 6.46804C18.6315 7.04263 18.6644 7.61818 18.7537 8.1863C18.7537 8.21821 18.7684 8.25012 18.7684 8.29922V9.38663L19.8583 8.76315C20.9685 8.09263 22.1427 7.5343 23.3635 7.09643C24.2909 6.7743 25.2637 6.60195 26.2453 6.58586C27.1093 6.58586 27.9905 6.74541 28.6631 7.24125C28.9318 7.41862 29.1509 7.66162 29.2995 7.94726C29.4481 8.2329 29.5214 8.55174 29.5124 8.87361C29.5124 9.88247 28.9037 10.5919 27.9414 11.1147C26.5816 11.8683 24.8044 12.0769 23.2359 12.0769C22.8505 12.0769 22.4823 12.0598 22.0994 12.0278C21.5225 11.9812 20.9309 11.9002 20.3541 11.8192L20.0006 11.7726L19.7552 11.9812C16.2111 14.9634 13.102 18.427 10.5183 22.2712C8.86878 24.7675 6.91733 28.2286 6.91733 31.1546C6.91733 31.9892 7.12352 32.836 7.81328 33.462C8.50304 34.0879 9.4628 34.3088 10.4398 34.3088C12.3593 34.3088 14.2494 33.5896 15.867 32.7403C22.9094 28.965 24.3012 25.3444 34.1664 22.6222Z" fill="#CC9856"/>
<path d="M24.991 30.4382C22.5093 32.7407 19.6374 34.967 16.4586 36.5356C15.4264 37.0543 14.3493 37.4782 13.2405 37.8022L15.9775 39.3388C16.6475 39.7389 17.4069 39.965 18.1867 39.9966C19.0526 40.0293 19.911 39.8239 20.6683 39.4026L34.0536 31.8619C34.8719 31.4067 35.5508 30.7372 36.0173 29.9252C36.4802 29.1158 36.7231 28.1992 36.7218 27.2668V24.6551C32.4286 25.6823 28.4202 27.6585 24.991 30.4382Z" fill="#CC9856"/>
<path d="M0.127642 28.3049C0.83213 25.6318 2.36875 23.074 4.11401 20.8452C7.28544 16.7631 11.4314 13.4174 16.105 10.6461L17.0182 10.1036L16.0584 9.6372C15.1561 9.17869 14.4298 8.436 13.9916 7.52373C13.4454 6.43719 13.1708 5.23441 13.1914 4.01848C13.2055 3.10106 13.3569 2.19094 13.6406 1.31835L13.2552 1.554L9.32772 3.74601L2.67313 7.49182C1.84747 7.94945 1.16703 8.62989 0.709397 9.45555C0.249164 10.2565 0.00472687 11.1632 0 12.0869V27.2175H0.0171826C0.0141555 27.5829 0.0511967 27.9475 0.127642 28.3049Z" fill="#CC9856"/>
</svg>
